<?xml version="1.0" standalone="no"?>
<svg xmlns:xlink="http://www.w3.org/1999/xlink" id="wave" style="transform:rotate(180deg); transition: 0.3s" viewBox="0 0 1440 200" version="1.1" xmlns="http://www.w3.org/2000/svg"><defs><linearGradient id="sw-gradient-0" x1="0" x2="0" y1="1" y2="0"><stop stop-color="rgba(0, 0, 0, 1)" offset="0%"/><stop stop-color="rgba(109.606, 109.606, 109.606, 1)" offset="100%"/></linearGradient></defs><path style="transform:translate(0, 0px); opacity:1" fill="url(#sw-gradient-0)" d="M0,180L34.3,166.7C68.6,153,137,127,206,103.3C274.3,80,343,60,411,56.7C480,53,549,67,617,86.7C685.7,107,754,133,823,130C891.4,127,960,93,1029,76.7C1097.1,60,1166,60,1234,80C1302.9,100,1371,140,1440,153.3C1508.6,167,1577,153,1646,130C1714.3,107,1783,73,1851,50C1920,27,1989,13,2057,30C2125.7,47,2194,93,2263,100C2331.4,107,2400,73,2469,63.3C2537.1,53,2606,67,2674,83.3C2742.9,100,2811,120,2880,106.7C2948.6,93,3017,47,3086,53.3C3154.3,60,3223,120,3291,133.3C3360,147,3429,113,3497,100C3565.7,87,3634,93,3703,93.3C3771.4,93,3840,87,3909,100C3977.1,113,4046,147,4114,136.7C4182.9,127,4251,73,4320,53.3C4388.6,33,4457,47,4526,46.7C4594.3,47,4663,33,4731,50C4800,67,4869,113,4903,136.7L4937.1,160L4937.1,200L4902.9,200C4868.6,200,4800,200,4731,200C4662.9,200,4594,200,4526,200C4457.1,200,4389,200,4320,200C4251.4,200,4183,200,4114,200C4045.7,200,3977,200,3909,200C3840,200,3771,200,3703,200C3634.3,200,3566,200,3497,200C3428.6,200,3360,200,3291,200C3222.9,200,3154,200,3086,200C3017.1,200,2949,200,2880,200C2811.4,200,2743,200,2674,200C2605.7,200,2537,200,2469,200C2400,200,2331,200,2263,200C2194.3,200,2126,200,2057,200C1988.6,200,1920,200,1851,200C1782.9,200,1714,200,1646,200C1577.1,200,1509,200,1440,200C1371.4,200,1303,200,1234,200C1165.7,200,1097,200,1029,200C960,200,891,200,823,200C754.3,200,686,200,617,200C548.6,200,480,200,411,200C342.9,200,274,200,206,200C137.1,200,69,200,34,200L0,200Z"/><defs><linearGradient id="sw-gradient-1" x1="0" x2="0" y1="1" y2="0"><stop stop-color="rgba(0, 0, 0, 1)" offset="0%"/><stop stop-color="rgba(107.329, 107.329, 107.329, 1)" offset="100%"/></linearGradient></defs><path style="transform:translate(0, 50px); opacity:0.9" fill="url(#sw-gradient-1)" d="M0,160L34.3,146.7C68.6,133,137,107,206,93.3C274.3,80,343,80,411,80C480,80,549,80,617,66.7C685.7,53,754,27,823,23.3C891.4,20,960,40,1029,43.3C1097.1,47,1166,33,1234,53.3C1302.9,73,1371,127,1440,130C1508.6,133,1577,87,1646,80C1714.3,73,1783,107,1851,130C1920,153,1989,167,2057,146.7C2125.7,127,2194,73,2263,50C2331.4,27,2400,33,2469,53.3C2537.1,73,2606,107,2674,126.7C2742.9,147,2811,153,2880,143.3C2948.6,133,3017,107,3086,93.3C3154.3,80,3223,80,3291,76.7C3360,73,3429,67,3497,66.7C3565.7,67,3634,73,3703,63.3C3771.4,53,3840,27,3909,13.3C3977.1,0,4046,0,4114,23.3C4182.9,47,4251,93,4320,113.3C4388.6,133,4457,127,4526,133.3C4594.3,140,4663,160,4731,143.3C4800,127,4869,73,4903,46.7L4937.1,20L4937.1,200L4902.9,200C4868.6,200,4800,200,4731,200C4662.9,200,4594,200,4526,200C4457.1,200,4389,200,4320,200C4251.4,200,4183,200,4114,200C4045.7,200,3977,200,3909,200C3840,200,3771,200,3703,200C3634.3,200,3566,200,3497,200C3428.6,200,3360,200,3291,200C3222.9,200,3154,200,3086,200C3017.1,200,2949,200,2880,200C2811.4,200,2743,200,2674,200C2605.7,200,2537,200,2469,200C2400,200,2331,200,2263,200C2194.3,200,2126,200,2057,200C1988.6,200,1920,200,1851,200C1782.9,200,1714,200,1646,200C1577.1,200,1509,200,1440,200C1371.4,200,1303,200,1234,200C1165.7,200,1097,200,1029,200C960,200,891,200,823,200C754.3,200,686,200,617,200C548.6,200,480,200,411,200C342.9,200,274,200,206,200C137.1,200,69,200,34,200L0,200Z"/><defs><linearGradient id="sw-gradient-2" x1="0" x2="0" y1="1" y2="0"><stop stop-color="rgba(0, 0, 0, 1)" offset="0%"/><stop stop-color="rgba(0, 0, 0, 1)" offset="100%"/></linearGradient></defs><path style="transform:translate(0, 100px); opacity:0.8" fill="url(#sw-gradient-2)" d="M0,40L34.3,46.7C68.6,53,137,67,206,60C274.3,53,343,27,411,26.7C480,27,549,53,617,60C685.7,67,754,53,823,43.3C891.4,33,960,27,1029,33.3C1097.1,40,1166,60,1234,56.7C1302.9,53,1371,27,1440,26.7C1508.6,27,1577,53,1646,83.3C1714.3,113,1783,147,1851,160C1920,173,1989,167,2057,136.7C2125.7,107,2194,53,2263,53.3C2331.4,53,2400,107,2469,113.3C2537.1,120,2606,80,2674,66.7C2742.9,53,2811,67,2880,80C2948.6,93,3017,107,3086,123.3C3154.3,140,3223,160,3291,140C3360,120,3429,60,3497,46.7C3565.7,33,3634,67,3703,96.7C3771.4,127,3840,153,3909,156.7C3977.1,160,4046,140,4114,130C4182.9,120,4251,120,4320,130C4388.6,140,4457,160,4526,140C4594.3,120,4663,60,4731,43.3C4800,27,4869,53,4903,66.7L4937.1,80L4937.1,200L4902.9,200C4868.6,200,4800,200,4731,200C4662.9,200,4594,200,4526,200C4457.1,200,4389,200,4320,200C4251.4,200,4183,200,4114,200C4045.7,200,3977,200,3909,200C3840,200,3771,200,3703,200C3634.3,200,3566,200,3497,200C3428.6,200,3360,200,3291,200C3222.9,200,3154,200,3086,200C3017.1,200,2949,200,2880,200C2811.4,200,2743,200,2674,200C2605.7,200,2537,200,2469,200C2400,200,2331,200,2263,200C2194.3,200,2126,200,2057,200C1988.6,200,1920,200,1851,200C1782.9,200,1714,200,1646,200C1577.1,200,1509,200,1440,200C1371.4,200,1303,200,1234,200C1165.7,200,1097,200,1029,200C960,200,891,200,823,200C754.3,200,686,200,617,200C548.6,200,480,200,411,200C342.9,200,274,200,206,200C137.1,200,69,200,34,200L0,200Z"/></svg>