<?xml version="1.0" standalone="no"?>
<svg xmlns:xlink="http://www.w3.org/1999/xlink" id="wave" style="transform:rotate(0deg); transition: 0.3s" viewBox="0 0 1440 120" version="1.1" xmlns="http://www.w3.org/2000/svg"><defs><linearGradient id="sw-gradient-0" x1="0" x2="0" y1="1" y2="0"><stop stop-color="rgba(122, 104, 99, 1)" offset="0%"/><stop stop-color="rgba(122, 104, 99, 1)" offset="100%"/></linearGradient></defs><path style="transform:translate(0, 0px); opacity:1" fill="url(#sw-gradient-0)" d="M0,0L26.7,2C53.3,4,107,8,160,24C213.3,40,267,68,320,76C373.3,84,427,72,480,56C533.3,40,587,20,640,20C693.3,20,747,40,800,48C853.3,56,907,52,960,42C1013.3,32,1067,16,1120,10C1173.3,4,1227,8,1280,14C1333.3,20,1387,28,1440,38C1493.3,48,1547,60,1600,64C1653.3,68,1707,64,1760,60C1813.3,56,1867,52,1920,52C1973.3,52,2027,56,2080,60C2133.3,64,2187,68,2240,72C2293.3,76,2347,80,2400,74C2453.3,68,2507,52,2560,46C2613.3,40,2667,44,2720,46C2773.3,48,2827,48,2880,54C2933.3,60,2987,72,3040,76C3093.3,80,3147,76,3200,66C3253.3,56,3307,40,3360,30C3413.3,20,3467,16,3520,28C3573.3,40,3627,68,3680,84C3733.3,100,3787,104,3813,106L3840,108L3840,120L3813.3,120C3786.7,120,3733,120,3680,120C3626.7,120,3573,120,3520,120C3466.7,120,3413,120,3360,120C3306.7,120,3253,120,3200,120C3146.7,120,3093,120,3040,120C2986.7,120,2933,120,2880,120C2826.7,120,2773,120,2720,120C2666.7,120,2613,120,2560,120C2506.7,120,2453,120,2400,120C2346.7,120,2293,120,2240,120C2186.7,120,2133,120,2080,120C2026.7,120,1973,120,1920,120C1866.7,120,1813,120,1760,120C1706.7,120,1653,120,1600,120C1546.7,120,1493,120,1440,120C1386.7,120,1333,120,1280,120C1226.7,120,1173,120,1120,120C1066.7,120,1013,120,960,120C906.7,120,853,120,800,120C746.7,120,693,120,640,120C586.7,120,533,120,480,120C426.7,120,373,120,320,120C266.7,120,213,120,160,120C106.7,120,53,120,27,120L0,120Z"/></svg>